<?xml version="1.0" encoding="utf-8"?>
<!-- Generator: Adobe Illustrator 24.1.3, SVG Export Plug-In . SVG Version: 6.00 Build 0)  -->
<svg version="1.1" id="Layer_1" xmlns="http://www.w3.org/2000/svg" xmlns:xlink="http://www.w3.org/1999/xlink" x="0px" y="0px"
	 viewBox="0 0 720 360" style="enable-background:new 0 0 720 360;" xml:space="preserve">
<style type="text/css">
	.st0{fill:#1236AE;}
	.st1{fill:#1259FB;}
</style>
<rect x="230.8" y="118.4" width="34.9" height="123.3"/>
<polygon class="st0" points="348.9,158.5 288.2,119.2 288.2,163 348.9,202.4 "/>
<polygon class="st1" points="348.9,202.4 288.2,241.7 288.2,197.9 348.9,158.5 "/>
<polygon class="st0" points="355.4,201.2 416.1,240.6 416.1,196.7 355.4,157.4 "/>
<polygon class="st1" points="355.4,157.4 416.1,118 416.1,161.9 355.4,201.3 "/>
<rect x="438.6" y="118.4" width="34.9" height="123.3"/>
<path d="M592.6,180c0.1,6.4-1.4,12.7-4.4,18.4c-2.8,5.2-6.9,9.5-12,12.4c-10.5,5.9-23.3,5.9-33.8,0c-5.1-2.9-9.2-7.2-12-12.4
	c-5.9-11.6-5.9-25.2,0-36.8c2.8-5.2,6.9-9.5,12-12.4c10.5-5.9,23.3-5.9,33.8,0c5.1,2.9,9.2,7.2,12,12.4
	C591.2,167.3,592.7,173.6,592.6,180 M627.8,180c0.4-23.4-12.5-45.1-33.4-55.8c-10.4-5.5-22.1-8.3-35.1-8.3s-24.8,2.8-35.1,8.3
	c-30.8,16.1-42.8,54.2-26.6,85c6,11.4,15.3,20.7,26.6,26.6c10.4,5.5,22.1,8.3,35.1,8.3c13,0,24.7-2.8,35.1-8.3
	C615.2,225.1,628.2,203.4,627.8,180"/>
<path d="M131.8,198.4c-5.8-11.6-5.8-25.2,0-36.8c2.8-5.2,7-9.5,12.1-12.4c5.5-3,11.6-4.5,17.9-4.4c11.4,0,21.1,4.8,29.1,14.4
	l22.2-20.1c-6-7.5-13.7-13.4-22.5-17.3c-9.6-4.1-20-6.2-30.5-6c-12.9,0-24.5,2.7-34.8,8.2c-10,5.2-18.4,13.1-24.2,22.8
	c-5.9,10-9,21.5-8.8,33.1c0,12.3,2.9,23.4,8.8,33.1c5.8,9.7,14.2,17.6,24.2,22.8c10.3,5.5,21.9,8.2,34.8,8.2
	c10.5,0.2,20.8-1.9,30.5-6c8.8-3.8,16.5-9.7,22.5-17.2l-22.2-20.1c-8,9.6-17.7,14.4-29.1,14.4c-6.2,0.1-12.4-1.4-17.9-4.4
	C138.7,207.9,134.5,203.6,131.8,198.4"/>
</svg>
