<svg id="Layer_1" data-name="Layer 1" xmlns="http://www.w3.org/2000/svg" viewBox="0 0 720 360"><defs><style>.cls-1{fill:#fff;}.cls-2{fill:#1236ae;}.cls-3{fill:#1259fb;}</style></defs><rect class="cls-1" x="230.84" y="118.36" width="34.87" height="123.28"/><polygon class="cls-2" points="348.92 158.54 288.21 119.16 288.21 163.04 348.92 202.42 348.92 158.54"/><polygon class="cls-3" points="348.92 202.35 288.21 241.74 288.21 197.86 348.92 158.48 348.92 202.35"/><polygon class="cls-2" points="355.37 201.24 416.07 240.62 416.07 196.74 355.37 157.36 355.37 201.24"/><polygon class="cls-3" points="355.37 157.42 416.07 118.04 416.07 161.92 355.37 201.3 355.37 157.42"/><rect class="cls-1" x="438.58" y="118.36" width="34.87" height="123.28"/><path class="cls-1" d="M592.56,180a37.62,37.62,0,0,1-4.4,18.4,31.63,31.63,0,0,1-12,12.42,34.67,34.67,0,0,1-33.81,0,31.63,31.63,0,0,1-12-12.42,40.67,40.67,0,0,1,0-36.8,31.69,31.69,0,0,1,12-12.42,34.67,34.67,0,0,1,33.81,0,31.69,31.69,0,0,1,12,12.42,37.62,37.62,0,0,1,4.4,18.4m35.22,0a61.71,61.71,0,0,0-33.37-55.83q-15.58-8.26-35.14-8.27t-35.13,8.27a63,63,0,0,0,0,111.66q15.58,8.28,35.13,8.27t35.14-8.27A61.71,61.71,0,0,0,627.78,180"/><path class="cls-1" d="M131.76,198.4a41.35,41.35,0,0,1,0-36.8,30.47,30.47,0,0,1,12.15-12.42,35.89,35.89,0,0,1,17.87-4.4q17.08,0,29.06,14.44L213,139.14a58.75,58.75,0,0,0-22.54-17.26,74.7,74.7,0,0,0-30.47-6q-19.38,0-34.78,8.18A61.25,61.25,0,0,0,101,146.89,62.91,62.91,0,0,0,92.22,180q0,18.5,8.8,33.11a61.15,61.15,0,0,0,24.22,22.8q15.4,8.19,34.78,8.19a74.7,74.7,0,0,0,30.47-6A58.66,58.66,0,0,0,213,220.86l-22.19-20.08q-12,14.44-29.06,14.44a35.78,35.78,0,0,1-17.87-4.4,30.41,30.41,0,0,1-12.15-12.42"/></svg>